<svg data-v-423bf9ae="" xmlns="http://www.w3.org/2000/svg" viewBox="0 0 372 90" class="iconLeft"><g data-v-423bf9ae="" id="c9096d44-0a48-4ff4-b65d-6fb756ca758f" fill="black" transform="matrix(4.566209926355878,0,0,4.566209926355878,134.06933028860294,-1.8949771836691838)"><path d="M0.49 10.12C0.49 12.26 1.83 13.72 3.85 13.72C4.97 13.72 5.81 13.27 6.31 12.46L6.31 13.40C6.31 14.69 5.39 15.51 3.98 15.51C3.07 15.51 2.34 15.22 1.64 14.70L0.95 15.86C1.86 16.48 2.88 16.84 4.05 16.84C6.38 16.84 7.91 15.50 7.91 13.36L7.91 6.64L6.31 6.64L6.31 7.84C5.80 7.03 4.94 6.57 3.79 6.58C1.82 6.59 0.49 8.02 0.49 10.12ZM2.00 10.16C2.02 8.83 2.90 7.88 4.17 7.88C5.43 7.88 6.31 8.82 6.31 10.16C6.31 11.51 5.43 12.46 4.17 12.46C2.88 12.46 2.02 11.51 2.00 10.16ZM9.53 11.84C9.53 13.16 10.54 14.15 12.15 14.15C13.23 14.15 14.08 13.83 14.62 13.17L14.62 14.08L16.20 14.08L16.18 9.20C16.17 7.56 15.09 6.58 13.17 6.58C11.76 6.58 11.00 6.90 9.97 7.52L10.63 8.64C11.37 8.13 12.11 7.88 12.82 7.88C14 7.88 14.60 8.44 14.60 9.38L14.60 9.60L12.35 9.60C10.56 9.62 9.53 10.49 9.53 11.84ZM11.05 11.77C11.05 11.06 11.54 10.78 12.59 10.78L14.60 10.78L14.60 11.47C14.52 12.28 13.64 12.88 12.49 12.88C11.59 12.88 11.05 12.45 11.05 11.77ZM18.42 14.08L20.03 14.08L20.03 3.70L18.42 3.70ZM21.78 10.36C21.78 12.60 23.37 14.14 25.68 14.14C27.97 14.14 29.55 12.60 29.55 10.36C29.55 8.11 27.97 6.58 25.68 6.58C23.37 6.58 21.78 8.11 21.78 10.36ZM23.39 10.37C23.39 8.95 24.33 7.97 25.68 7.97C27.01 7.97 27.94 8.95 27.94 10.37C27.94 11.82 27.01 12.80 25.68 12.80C24.33 12.80 23.39 11.82 23.39 10.37ZM30.53 10.36C30.53 12.60 32.12 14.14 34.43 14.14C36.72 14.14 38.30 12.60 38.30 10.36C38.30 8.11 36.72 6.58 34.43 6.58C32.12 6.58 30.53 8.11 30.53 10.36ZM32.14 10.37C32.14 8.95 33.08 7.97 34.43 7.97C35.76 7.97 36.69 8.95 36.69 10.37C36.69 11.82 35.76 12.80 34.43 12.80C33.08 12.80 32.14 11.82 32.14 10.37ZM39.98 14.08L41.59 14.08L41.59 10.19C41.72 8.92 42.67 8.04 44.17 8.12L44.17 6.58C42.99 6.58 42.10 7.11 41.59 8.12L41.59 6.64L39.98 6.64ZM44.80 10.37C44.80 12.61 46.31 14.14 48.61 14.14C49.90 14.14 50.96 13.68 51.69 12.88L50.83 11.97C50.29 12.53 49.55 12.84 48.73 12.84C47.56 12.84 46.68 12.12 46.42 10.98L52.05 10.98C52.25 8.29 51.18 6.58 48.57 6.58C46.35 6.59 44.80 8.12 44.80 10.37ZM46.40 9.80C46.58 8.61 47.40 7.87 48.58 7.87C49.80 7.87 50.60 8.60 50.65 9.80Z"></path></g><g data-v-423bf9ae="" id="98679aff-36cd-48fc-b35b-69a594984bea" transform="matrix(1.2802378219565094,0,0,1.2802378219565094,-5.435815608841352,-24.377364138611085)" stroke="none" fill="black"><path d="M47.73 31.242c-4.039-.651-17.266-2.606-25.476-4.04a32.5 32.5 0 0 0-5.574-.468c-6.148 0-11.414 1.615-12.018 3.073-.782 1.889 4.04 2.802 4.04 2.802.481 2.462 2.943 2.683 3.806 2.683.188 0 .299-.011.299-.011.453 2.42 3.171 2.694 4.376 2.694.352 0 .575-.023.575-.023 1.009 2.689 3.396 3.042 4.583 3.042.424 0 .694-.045.694-.045 1.271 2.089 3.302 2.405 4.416 2.405.485 0 .796-.06.796-.06.329 1.685 2.161 1.996 3.469 1.996.766 0 1.353-.107 1.353-.107.406 1.747 2.076 2.076 3.278 2.076.728 0 1.283-.121 1.283-.121.578 1.059 1.645 1.328 2.581 1.328.962 0 1.784-.285 1.784-.285.299 1.007 1.365 1.222 2.22 1.222.64 0 1.162-.12 1.162-.12.354.707 1.348.847 2.083.847.483 0 .854-.061.854-.061.042.211.573.421 1.416.421a6.7 6.7 0 0 0 1.646-.225c1.76-.456 2.601-2.372 2.601-2.372l.044-.102a4 4 0 0 0-.078.189c-2.62 6.633.234 20.805.104 21.962-.13 1.172-2.15 13.616-1.759 14.203.067.099.129.141.188.141.285 0 .464-.988.464-.988.131.65-.079 3.051.979 3.389a.5.5 0 0 0 .154.023c1.516 0 2.125-7.256 2.125-7.256-.326 4.691.184 8.735.9 9.321a1 1 0 0 0 .631.244c.561 0 1.093-.566 1.141-1.747.061-1.504.716-12.053.716-12.053.196 1.304 1.174 11.662 1.369 12.509.195.848.782 1.76 1.237 1.76.457 0 .979-.261.979-2.021 0-1.471-1.369-14.659-1.369-14.659.52 3.764 2.398 13.683 3.569 13.683h.014c1.828-.125-2.337-13.588-2.169-13.588q.009-.001.033.049c.821 1.642 3.012 9.982 4.057 9.982q.051 0 .1-.027c1.417-.833-5.082-18.895-5.082-18.895.64-1.279 2.473-4.694 2.972-4.694q.013 0 .025.003c.456.13-.26 1.043-.26 1.043 2.671-.521 3.062-3.846 3.062-3.846 9.839-8.86 2.261-21.594 5.604-24.302 3.779-3.063 3.062-6.646 6.581-9.057 1.888-1.292 6.097-1.592 9.597-1.592 3.025 0 5.519.225 5.519.225-2.447-1.036-5.177-1.36-7.672-1.36-3.88 0-7.196.784-8.029.903a4 4 0 0 1-.582.037c-1.374 0-3.197-.492-3.197-.492-1.717-.582-3.201-.832-4.488-.832-7.074 0-8.223 7.533-9.325 8.911-1.303 1.628-3.258 4.17-3.909 5.799-.002.002-8.335-3.168-10.492-3.516m26.257-8.046a.683.683 0 1 1 0 1.368.684.684 0 1 1 0-1.368"></path><path d="M30.333 26.127c.195.978 3.127 2.424 4.366 2.053.229.291.453.533.676.756 2.369.369 4.671.722 6.706 1.035 2.472.378 4.502.69 5.71.886 1.943.312 8.594 2.794 10.219 3.407.363-.78 1.013-1.8 1.896-3.025-10.288-5.469-11.982-4.531-15.696-5.729-8.405-3.844-19.612-6.359-21.893-6.321 0 0-1.417.489-.244 1.662.882.878 5.069 5.016 8.26 5.276"></path></g></svg>