<svg xmlns="http://www.w3.org/2000/svg" viewBox="0 0 300 300">
  <defs>
    <linearGradient gradientTransform="rotate(25)" id="d5023664-3cf4-4b11-b9ab-ad8f1e82c386" x1="0%" y1="0%" x2="100%" y2="0%">
      <stop offset="0%" stop-color="#01695A" stop-opacity="1"></stop>
      <stop offset="100%" stop-color="#2CC26F" stop-opacity="1"></stop>
    </linearGradient>
  </defs>
  <!-- Center background in premium black matching your app aesthetic -->
  <rect fill="#000000" x="0" y="0" width="300" height="300" rx="60"></rect>
  <!-- Beautiful centered hummingbird -->
  <g stroke="none" fill="url(#d5023664-3cf4-4b11-b9ab-ad8f1e82c386)" transform="matrix(2.2, 0, 0, 2.2, 50, 45)">
    <path d="M47.73 31.242c-4.039-.651-17.266-2.606-25.476-4.04a32.5 32.5 0 0 0-5.574-.468c-6.148 0-11.414 1.615-12.018 3.073-.782 1.889 4.04 2.802 4.04 2.802.481 2.462 2.943 2.683 3.806 2.683.188 0 .299-.011.299-.011.453 2.42 3.171 2.694 4.376 2.694.352 0 .575-.023.575-.023 1.009 2.689 3.396 3.042 4.583 3.042.424 0 .694-.045.694-.045 1.271 2.089 3.302 2.405 4.416 2.405.485 0 .796-.06.796-.06.329 1.685 2.161 1.996 3.469 1.996.766 0 1.353-.107 1.353-.107.406 1.747 2.076 2.076 3.278 2.076.728 0 1.283-.121 1.283-.121.578 1.059 1.645 1.328 2.581 1.328.962 0 1.784-.285 1.784-.285.299 1.007 1.365 1.222 2.22 1.222.64 0 1.162-.12 1.162-.12.354.707 1.348.847 2.083.847.483 0 .854-.061.854-.061.042.211.573.421 1.416.421a6.7 6.7 0 0 0 1.646-.225c1.76-.456 2.601-2.372 2.601-2.372l.044-.102a4 4 0 0 0-.078.189c-2.62 6.633.234 20.805.104 21.962-.13 1.172-2.15 13.616-1.759 14.203.067.099.129.141.188.141.285 0 .464-.988.464-.988.131.65-.079 3.051.979 3.389a.5.5 0 0 0 .154.023c1.516 0 2.125-7.256 2.125-7.256-.326 4.691.184 8.735.9 9.321a1 1 0 0 0 .631.244c.561 0 1.093-.566 1.141-1.747.061-1.504.716-12.053.716-12.053.196 1.304 1.174 11.662 1.369 12.509.195.848.782 1.76 1.237 1.76.457 0 .979-.261.979-2.021 0-1.471-1.369-14.659-1.369-14.659.52 3.764 2.398 13.683 3.569 13.683h.014c1.828-.125-2.337-13.588-2.169-13.588q.009-.001.033.049c.821 1.642 3.012 9.982 4.057 9.982q.051 0 .1-.027c1.417-.833-5.082-18.895-5.082-18.895.64-1.279 2.473-4.694 2.972-4.694q.013 0 .025.003c.456.13-.26 1.043-.26 1.043 2.671-.521 3.062-3.846 3.062-3.846 9.839-8.86 2.261-21.594 5.604-24.302 3.779-3.063 3.062-6.646 6.581-9.057 1.888-1.292 6.097-1.592 9.597-1.592 3.025 0 5.519.225 5.519.225-2.447-1.036-5.177-1.36-7.672-1.36-3.88 0-7.196.784-8.029.903a4 4 0 0 1-.582.037c-1.374 0-3.197-.492-3.197-.492-1.717-.582-3.201-.832-4.488-.832-7.074 0-8.223 7.533-9.325 8.911-1.303 1.628-3.258 4.17-3.909 5.799-.002.002-8.335-3.168-10.492-3.516m26.257-8.046a.683.683 0 1 1 0 1.368.684.684 0 1 1 0-1.368"></path>
    <path d="M30.333 26.127c.195.978 3.127 2.424 4.366 2.053.229.291.453.533.676.756 2.369.369 4.671.722 6.706 1.035 2.472.378 4.502.69 5.71.886 1.943.312 8.594 2.794 10.219 3.407.363-.78 1.013-1.8 1.896-3.025-10.288-5.469-11.982-4.531-15.696-5.729-8.405-3.844-19.612-6.359-21.893-6.321 0 0-1.417.489-.244 1.662.882.878 5.069 5.016 8.26 5.276"></path>
  </g>
</svg>
