<svg data-v-423bf9ae="" xmlns="http://www.w3.org/2000/svg" viewBox="0 0 235.54103706200385 60" class="font"><g data-v-423bf9ae="" id="b07b93da-8010-453a-8929-f216c04de3d7" fill="white" transform="matrix(4.566209926355878,0,0,4.566209926355878,-2.2374400361040756,-16.894977183669184)"><path d="M0.49 10.12C0.49 12.26 1.83 13.72 3.85 13.72C4.97 13.72 5.81 13.27 6.31 12.46L6.31 13.40C6.31 14.69 5.39 15.51 3.98 15.51C3.07 15.51 2.34 15.22 1.64 14.70L0.95 15.86C1.86 16.48 2.88 16.84 4.05 16.84C6.38 16.84 7.91 15.50 7.91 13.36L7.91 6.64L6.31 6.64L6.31 7.84C5.80 7.03 4.94 6.57 3.79 6.58C1.82 6.59 0.49 8.02 0.49 10.12ZM2.00 10.16C2.02 8.83 2.90 7.88 4.17 7.88C5.43 7.88 6.31 8.82 6.31 10.16C6.31 11.51 5.43 12.46 4.17 12.46C2.88 12.46 2.02 11.51 2.00 10.16ZM9.53 11.84C9.53 13.16 10.54 14.15 12.15 14.15C13.23 14.15 14.08 13.83 14.62 13.17L14.62 14.08L16.20 14.08L16.18 9.20C16.17 7.56 15.09 6.58 13.17 6.58C11.76 6.58 11.00 6.90 9.97 7.52L10.63 8.64C11.37 8.13 12.11 7.88 12.82 7.88C14 7.88 14.60 8.44 14.60 9.38L14.60 9.60L12.35 9.60C10.56 9.62 9.53 10.49 9.53 11.84ZM11.05 11.77C11.05 11.06 11.54 10.78 12.59 10.78L14.60 10.78L14.60 11.47C14.52 12.28 13.64 12.88 12.49 12.88C11.59 12.88 11.05 12.45 11.05 11.77ZM18.42 14.08L20.03 14.08L20.03 3.70L18.42 3.70ZM21.78 10.36C21.78 12.60 23.37 14.14 25.68 14.14C27.97 14.14 29.55 12.60 29.55 10.36C29.55 8.11 27.97 6.58 25.68 6.58C23.37 6.58 21.78 8.11 21.78 10.36ZM23.39 10.37C23.39 8.95 24.33 7.97 25.68 7.97C27.01 7.97 27.94 8.95 27.94 10.37C27.94 11.82 27.01 12.80 25.68 12.80C24.33 12.80 23.39 11.82 23.39 10.37ZM30.53 10.36C30.53 12.60 32.12 14.14 34.43 14.14C36.72 14.14 38.30 12.60 38.30 10.36C38.30 8.11 36.72 6.58 34.43 6.58C32.12 6.58 30.53 8.11 30.53 10.36ZM32.14 10.37C32.14 8.95 33.08 7.97 34.43 7.97C35.76 7.97 36.69 8.95 36.69 10.37C36.69 11.82 35.76 12.80 34.43 12.80C33.08 12.80 32.14 11.82 32.14 10.37ZM39.98 14.08L41.59 14.08L41.59 10.19C41.72 8.92 42.67 8.04 44.17 8.12L44.17 6.58C42.99 6.58 42.10 7.11 41.59 8.12L41.59 6.64L39.98 6.64ZM44.80 10.37C44.80 12.61 46.31 14.14 48.61 14.14C49.90 14.14 50.96 13.68 51.69 12.88L50.83 11.97C50.29 12.53 49.55 12.84 48.73 12.84C47.56 12.84 46.68 12.12 46.42 10.98L52.05 10.98C52.25 8.29 51.18 6.58 48.57 6.58C46.35 6.59 44.80 8.12 44.80 10.37ZM46.40 9.80C46.58 8.61 47.40 7.87 48.58 7.87C49.80 7.87 50.60 8.60 50.65 9.80Z"></path></g></svg>